<svg xmlns="http://www.w3.org/2000/svg"><symbol id="brachiosaurus" viewBox="0 0 256 256"><path fill="#0056cb" d="M58.9 166.8a38.7 38.7 0 0 0-7.7.8v.2c0 .3.3.6.8.9a12 12 0 0 0 2 1.1l2.6 1 2.8.8 2.4.6 1.5.2h2.2a10.9 10.9 0 0 0 2.5-.4l2.4-.8a5 5 0 0 0 1.7-1.5 30.3 30.3 0 0 0-6.4-2.2 30.8 30.8 0 0 0-6.8-.7z"/><path fill="#231f20" d="M128 .3a127.4 127.4 0 1 0 127.3 127.4A127.3 127.3 0 0 0 128 .3zm83 70.3v.3a3.7 3.7 0 0 1-.1 1.4 15.2 15.2 0 0 1-.3 2.1l-.3 2.1a6.3 6.3 0 0 1-.3 1.3l-.9 1.9-.6 1.9-.6 2.1a14.6 14.6 0 0 1-.7 1.9l-1.7 3.1a21.1 21.1 0 0 0-1.6 3l-20 27.8-.2.5-.3.3-.3.3-.4.5-1.7 2.3-2 2.8c-.8 1.1-1.5 2.2-2.2 3.3a29 29 0 0 0-2 3.3 15.3 15.3 0 0 0-1.4 2.9 6 6 0 0 0-.5 2.4c0 .3-.3.5-.2.7s.1.4.1.7c-.1 0-.2.1-.2.4s.1.4.2.4v10.2a2 2 0 0 1-.2 1c-.2.3-.2.7-.4 1.1a13.4 13.4 0 0 1-.6 1.2c-.1.5-.4.8-.4 1.2v1.6a.8.8 0 0 1 0 .5 2 2 0 0 0-.4.8l-.8.8c-.1.2-.5.3-.5.4v.4c0 .1.7.2.8.4s.9.3.9.4v2.9a23.3 23.3 0 0 1-.6 3.5c-.2 1.2-.6 2.3-.8 3.5s-.5 2.3-.7 3.5a20.7 20.7 0 0 0-.3 3.5q0 3.2.3 6.3a42.3 42.3 0 0 0 1.1 6.2 31 31 0 0 0 2.1 5.8 24.5 24.5 0 0 0 3.4 5.2 3.6 3.6 0 0 1-1.2.8l-1.7.7-1.7.5a3.8 3.8 0 0 1-1.5 0h-.4l-1.1-.2-1.2-.3-.9-.2h-.8l-.7-.3a1.8 1.8 0 0 1-.7-.5l-.3-.7a27.7 27.7 0 0 0 .1-4.1 29.7 29.7 0 0 0-.3-4.2c-.1-1.5-.3-2.9-.5-4.3s-.4-2.8-.5-4.1-.1-.3-.2-.7-.2-.5-.3-.5.1-2.4.2-3.7a26.8 26.8 0 0 0-.2-4 17.5 17.5 0 0 0-.5-4 10.6 10.6 0 0 0-1.5-3.4 3 3 0 0 0-1.4 1.8 17.3 17.3 0 0 0-.8 2.7c-.2 1-.2 1.9-.4 2.9s-1 1.7-1 2.3v1.5a17.7 17.7 0 0 1 0 2.3v3.8c0 2.8-.2 5.6-.1 8.3a77.2 77.2 0 0 0 .6 8.2l.4.4.8.5.8.7c.3.3.4.5.4.7s-.3.5-.9.8a7.5 7.5 0 0 1-1.8.8l-2 .9-1.3.4h-.2l-4.7-2.6a.5.5 0 0 1-.3-.5v-.6a14.5 14.5 0 0 1 .1-3 28.1 28.1 0 0 0 .1-3c0-1.3-.2-2.6-.3-3.8l-.6-3.7-.6-3.8a25.6 25.6 0 0 1-.3-3.9c0-1.2.1-2.3.1-3.3a23.6 23.6 0 0 1 .4-2.8c.2-.9.3-1.9.5-2.8s.4-2.1.7-3.2a2.8 2.8 0 0 0-.1-.8c0-.3-.1-.5-.1-.7l-1.9.3-1.8.5-1.9.6-2 .5-1.3.2h-1.1c-.3.1-.7-.1-1-.1l-1-.2h-1.9a45.1 45.1 0 0 1-5.2 0 46.1 46.1 0 0 0-5.3-.2H121a5 5 0 0 0-2.4.9v5.2c0 1.7-.1 3.4-.2 5.1s-.1 3.4-.2 5.1-.2 3.5-.2 5.2v2.6a7.5 7.5 0 0 1 0 1.5v1c0 .6.7 1.1 1.2 1.7a20.9 20.9 0 0 0 1.4 1.7l1.2 1.8a4.1 4.1 0 0 1 .5 1.8v.4a11.2 11.2 0 0 1-4.1.4c.1.4 0 .7-.2.8h-2.8a7.8 7.8 0 0 1-2.2-.3 3.7 3.7 0 0 1-1.8-.8 2.1 2.1 0 0 1-.8-1.9 6.2 6.2 0 0 1 .1-1.3l.3-1.3a5 5 0 0 0 .4-1.3 6.1 6.1 0 0 0 .1-1.4 23.4 23.4 0 0 0-.3-3.8c-.2-1.2-.4-2.4-.7-3.6s-.5-2.7-.8-3.9a27.8 27.8 0 0 1-.7-3.9h-.4c-.2 0-.4.7-.5.9a2.5 2.5 0 0 0-.4.7.9.9 0 0 0-.3.5l-1.6 2.3-1.5 2.3a17.3 17.3 0 0 0-1 2.4 7.6 7.6 0 0 0-.5 2.7 3.2 3.2 0 0 0 .4 1.6 5.2 5.2 0 0 0 .7 1.5 6.3 6.3 0 0 0 .7 1.2l.3.6a.8.8 0 0 1-.4.7l-1 .5-1.3.2h-4.3a1.6 1.6 0 0 1-1.1-.4 2.2 2.2 0 0 1-.7-.9 6.8 6.8 0 0 1-.6-1.6 9.8 9.8 0 0 0-.5-1.6 4.7 4.7 0 0 1-.3-1.7 4.3 4.3 0 0 1 .4-1.4 8.6 8.6 0 0 1 1-1.6l1.1-1.6a10.9 10.9 0 0 0 .8-1.5l2.4-5.9c.8-2 1.7-3.9 2.5-5.9a1.8 1.8 0 0 1 .5-.7l.5-.8a1.6 1.6 0 0 0 .4-.7 1.2 1.2 0 0 0 .2-.8c0-.4-.1-.6-.3-.7h-1.3l-9 2.5a3.2 3.2 0 0 1-1.3.5l-1.8.4a7.6 7.6 0 0 0-1.6.6 1.2 1.2 0 0 0-.7 1.1 1.6 1.6 0 0 0 .3.9l.7.6.8.6a1.3 1.3 0 0 1 .7.6l-.4.4-1.2-.8-1.5-.9-1.5-.6-1.5-.2a17.3 17.3 0 0 0-3.8.5l-4 1.1c-1.3.5-2.7.8-4.1 1.2a19.3 19.3 0 0 1-4.2.5 17.7 17.7 0 0 1-3.4-.4c-1.5-.3-3.2-.6-4.9-1.1l-5.5-1.8a46.8 46.8 0 0 1-5-2.2 23.7 23.7 0 0 1-3.7-2.7 4.6 4.6 0 0 1-1.4-3 4.9 4.9 0 0 1 1.1-3.3 7.1 7.1 0 0 1 2.8-1.6c1.1-.4 2.2-.1 3.5-.2s2.3.4 3.3.4h1.1a4.8 4.8 0 0 1 1.2 0h1.7c.2 0 .6-.4 1.3-.3a19.5 19.5 0 0 1 2.3.2 20.6 20.6 0 0 1 2.6.3l2 .2a7 7 0 0 1 1.9.6l1.8.8 1.8.8a6.9 6.9 0 0 0 2 .3 8.8 8.8 0 0 0 4-1 47.8 47.8 0 0 0 4.2-2.6l3.9-3.1 3.2-2.7 1.9-1.3 1.9-1.1 1.7-1.3a8.6 8.6 0 0 0 1.5-1.7 39.1 39.1 0 0 0 2.6-4.4 33.5 33.5 0 0 1 2.7-4.5 5.3 5.3 0 0 1 1.3-1.3l1.6-1 1.6-.9 1.6-.9a30.7 30.7 0 0 0 3.6-2.7l3.5-2.9 3.3-3 3.5-2.9a23.6 23.6 0 0 1 3.8-2.2l3.9-1.8 2.5-1.3 2.5-1.3a20.6 20.6 0 0 1 2.6-1.2 11.1 11.1 0 0 1 2.6-.7l22.5-3.3a11.8 11.8 0 0 0 3.5-1.1 21.7 21.7 0 0 0 3.4-2.2 28.1 28.1 0 0 0 3.1-2.9c1.1-1.1 2-2.2 3-3.3s1.8-2.1 2.6-3.2l2.4-2.8 7.7-9a.7.7 0 0 0 .3-.3l.6-.5.5-.5.3-.3 2-3.3h.2l.4-.3.4-.2.2-.2.4-.4c.2-.2.4-.3.4-.4l1.2-1.7a24.3 24.3 0 0 0 1.4-2 21.4 21.4 0 0 0 1.3-1.9 18 18 0 0 0 1-1.8 12.1 12.1 0 0 0 .9-2 17.2 17.2 0 0 1 .7-2.1c.2-.8.5-1.5.7-2.2s1-1.5 1-2.2v-6.1a4.7 4.7 0 0 0-1.1-3.1 11 11 0 0 0-2.6-2.7 18.3 18.3 0 0 0-3.4-1.8 9.9 9.9 0 0 0-3.2-.6 27.8 27.8 0 0 0-5.8.6 12 12 0 0 0-5.1 2.7 6.4 6.4 0 0 0-1.5 1.4l-1.6 1.9-1.8 2a15.3 15.3 0 0 1-1.8 1.8 6.8 6.8 0 0 1-1.8 1.3 3.2 3.2 0 0 1-1.8.6 1.8 1.8 0 0 1-1.2-.5 1.6 1.6 0 0 1-.5-1.1v-.5a2 2 0 0 0 .1-.5c.1-.2.1-.5.2-.7s.1-.6.1-.8a1.1 1.1 0 0 0 .1-.5 7 7 0 0 0-.2-1.6l-.6-1.4a6.7 6.7 0 0 1-.6-1.2 2.8 2.8 0 0 1-.3-1.3c.4 0 .7 0 .9-.2l.4-.6.5-.8a1.8 1.8 0 0 1 .8-.6h.5l.9-.2c.3.1.6-.1.9-.1h.5c.4 0 .8-.1.9-.3a2.7 2.7 0 0 1 .8-.7h.3c.1 0 .2.2.3.3s.1.4.2.5a.4.4 0 0 1 .4-.4l.6-.4 1.1-.6 1.4-.9 1.3-.6 1.1-.7.6-.4 2.1-1.3a6.4 6.4 0 0 1 1.8-.6l1.9-.2h6.5a3.5 3.5 0 0 0 1.4.6l1.6.3 1.5.3 1.6.5a16.1 16.1 0 0 1 4.5 3 18 18 0 0 1 3.2 4.2 18.2 18.2 0 0 1 1.8 5.1 25 25 0 0 1 .4 5.5v.7a2.2 2.2 0 0 1 0 .8z"/></symbol><symbol id="velociraptor" viewBox="0 0 256 249"><path fill="#231f20" d="M127.7-2.2A126.4 126.4 0 1 0 254 124.2 126.4 126.4 0 0 0 127.7-2.2zm109.2 115.3a28 28 0 0 1-4.1 0h-3.2c-3 0-6.1-.2-9.1-.5l-9-.9-9.1-1a91 91 0 0 0-9.1-.4 149.3 149.3 0 0 0-16.2.9 76.3 76.3 0 0 0-15.7 3.7l-30.3 11a2.4 2.4 0 0 0-1.2 1.5 27.6 27.6 0 0 0-.8 2.7c-.3 1-.5 2-.7 2.9a5.3 5.3 0 0 1-.6 1.9 3 3 0 0 0 1.4 1.3l2.4 1.2 2.9 1.2a11.5 11.5 0 0 1 2.7 1.4 6.5 6.5 0 0 1 2.1 1.9 3.3 3.3 0 0 1 .8 2.4 1.7 1.7 0 0 1-.5 1.2l-1.2.9-1.6.7-1.6.8a4 4 0 0 0-1.2 1 2.5 2.5 0 0 0-.5 1.5 3.6 3.6 0 0 0 .8 2.5 9.5 9.5 0 0 0 1.9 1.6l2.4 1.3a8.7 8.7 0 0 1 2.1 1.7 18 18 0 0 1 2.1 3.5 25.3 25.3 0 0 1 1.2 3.6c.3 1.3.6 2.5.8 3.9s.1 2.6.2 3.9l1.3 1.3v7.1h.9l1 .2 1 .2.5.2a3.9 3.9 0 0 1 .1.9 3.4 3.4 0 0 1-.1.9l-.3 1.3a3.1 3.1 0 0 1-.7.9.8.8 0 0 1-.8.3h-5.2c-.2 0-.5-.5-1-.8l-1.5-.9a10.9 10.9 0 0 1-1.5-.8c-.5-.3-.9-.8-1.2-.8h-6.1c0-1.7.2-2.3.7-2.9a3.5 3.5 0 0 1 1.6-1.6 6.5 6.5 0 0 1 2.1-.6l2.1-.4a3.8 3.8 0 0 0 1.6-.6 1.4 1.4 0 0 0 .7-1.3.8.8 0 0 0-.1-.4v-.3c-.2-.4-.4-1-.8-1.7s-.8-1.6-1.3-2.4l-1.5-2.5a10 10 0 0 0-1.6-1.8l-1.2-.8-1.9-.9-1.7-1.1a1.7 1.7 0 0 1-1-1.1c-.3-.8-.6-1.8-.9-2.9a30.1 30.1 0 0 0-1.1-3.2 7.4 7.4 0 0 0-1.7-2.5 4 4 0 0 0-2.9-1.1 24.7 24.7 0 0 0-6 .8 28 28 0 0 0-5.7 2.2 27.4 27.4 0 0 0-4.9 3.5 21.1 21.1 0 0 0-3.9 4.5l-.4.2h-.1c-.1 0-.1-.1-.1-.2s-.2-.1-.2-.3-.1-.4-.2-.6-.1-.5-.2-.6-.1-.3-.1-.4h-.3a1.5 1.5 0 0 0-1.1.4l-.8 1.2-.9 1.3a2.7 2.7 0 0 1-.8 1 3.2 3.2 0 0 1-.6-1.6 11.3 11.3 0 0 1 .3-4.5 13.1 13.1 0 0 1 .9-2.8c.3-1 .6-1.6.9-2.6s.4-2.7.4-2.7h-4.9a2.9 2.9 0 0 1 .7-2.4 4.6 4.6 0 0 1 1.6-1.5 5 5 0 0 1 2.1-.9l2.1-.3a15.1 15.1 0 0 1 3 .2l2.9.4 2.9.5 2.9.2h2.3a2.5 2.5 0 0 0-1.7-1.3 10.1 10.1 0 0 0-2.5-.5l-2.7-.2c-.9 0-1.6.2-2.2-.2l-3.8-2.2h-.3a17.1 17.1 0 0 0-3.2 0 10.6 10.6 0 0 1-3.1.2 7.3 7.3 0 0 1-3-.7l-2.6-1.4-2.6-1.3a5 5 0 0 0-2.9-.6v6l1.6-.2 1-.3.9-.5.9-.7h.6v2.7l2-.7c0 .2.2.3.2.6s.1.3.1.5a5.5 5.5 0 0 1-1.3 3.8 22.6 22.6 0 0 1-3.2 2.9 29.2 29.2 0 0 0-4.6-1.3l-4.8-.6v-7.8l-1.7.6a7.5 7.5 0 0 0-2 1 6.8 6.8 0 0 0-1.9 1.1c-.5.5-1 .8-1 1.2v6.9a9.6 9.6 0 0 0 3-.3l1.8-.6 1.2-.6 1.2-.3h.4l.3.7c.1.4.3.8.4 1.2a9.3 9.3 0 0 1 .4 1.3 8.4 8.4 0 0 1 .2 1 4.6 4.6 0 0 1-.4 1.9 8.7 8.7 0 0 1-1.1 1.8 4.7 4.7 0 0 1-1.5 1.3 3.2 3.2 0 0 1-1.8.6h-1l-3-.4-3.6-.7a14.2 14.2 0 0 1-3.3-1.3 2.6 2.6 0 0 1-1.4-2.1v-11.9l.9-.8 1.9-1.6a22.8 22.8 0 0 0 2.3-2.2 18.8 18.8 0 0 0 2.4-2.5 20.3 20.3 0 0 0 1.8-2.6 5.4 5.4 0 0 0 .7-2.6 3.7 3.7 0 0 0-1.2-2.7 9 9 0 0 0-2.7-2 24.1 24.1 0 0 0-3.3-1.5l-2.5-.9-1.3-9a16.8 16.8 0 0 0-.6-2.7 10.9 10.9 0 0 0-1.1-2.7 6.3 6.3 0 0 0-1.8-2.1 3.9 3.9 0 0 0-2.6-.9 9.8 9.8 0 0 0-3.6.5 17.3 17.3 0 0 0-3.2 1.4l-1.6 1.1-2.6 1.4-2.9 1.8-3 1.7-2.5 1.7c-.7.4-1.3 1.1-1.6 1.1h-1l-1.7-.3-2.1-.3a4.7 4.7 0 0 1-1.4-.8c-.4-.3-.3-.8-.3-1.3v-1.9c0-.6-.2-.9 0-.9h1.6a.8.8 0 0 1 0-.5c.1-.2.1-.5.2-.8s.1-.6.1-.8a1.8 1.8 0 0 0 .1-.5 3.6 3.6 0 0 0-.8-.9l-.9-.5a1.3 1.3 0 0 1-.7-.6 2.1 2.1 0 0 1-.3-1.2 2.7 2.7 0 0 1 .3-1.2 3.4 3.4 0 0 1 .6-1.2c.3-.3.3-.6.6-.8a2.5 2.5 0 0 1 .8-.4v.8c0 .5.5 1 .6 1.5a1.2 1.2 0 0 0 1.2.7 1.8 1.8 0 0 0 1.1-.5 4.8 4.8 0 0 0 .9-1.1 11.1 11.1 0 0 0 .7-1.6c.1-.5.2.2.2-1.4H21.9a2.1 2.1 0 0 1-.9-.5l-1-.6a3.6 3.6 0 0 1-.9-.8 1.4 1.4 0 0 1-.4-1.1 4.1 4.1 0 0 1 1.1-3.1 6.4 6.4 0 0 1 2.5-1.8 17 17 0 0 1 3.2-1 25.5 25.5 0 0 0 2.8-.8l2.2-1 3.4-1.5 3.3-1.6a8.9 8.9 0 0 1 2.2-1h13.5a7.9 7.9 0 0 1 3.8.9 11 11 0 0 1 3.1 2.6 40.3 40.3 0 0 1 2.6 3.2c.7 1.2 1.5 2.3 2.2 3.3a20.2 20.2 0 0 0 2.3 2.6 3.7 3.7 0 0 0 2.5 1 .8.8 0 0 0 .7-.4 1 1 0 0 1 .9-.4l1.5.3 1.5.7 1.5.7a4.1 4.1 0 0 0 1.6.3l4-.2 4.1-.4 4.1-.5a27.3 27.3 0 0 1 4.1-.3c2.5 0 4.9.2 7.2.4a38.9 38.9 0 0 1 7.2 1.6 52.1 52.1 0 0 1 5 2l5.1 2.1a45.6 45.6 0 0 0 5.2 1.8 25 25 0 0 0 5.4.7h2.6c4.2-1 8.5-1.9 12.8-2.7s8.5-1.7 12.7-2.3 8.5-1.1 12.8-1.5 8.7-.6 13.1-.6h8.7c1.9.1 3.6.7 5.1.9l36.1 7.2h11.7c-.8 0-1.8 1-3.1 1.4a18.5 18.5 0 0 1-4.1.2z"/></symbol><symbol id="micropachycephalosaurus" viewBox="0 0 256 249"><path fill="#231f20" d="M134.8 147c-.3 0-.4.2-.4.6h-.1c-.3 0-.4.2-.4.5s.1.6.4.6.4-.2.4-.6h.1c.4 0 .5-.1.5-.5s-.1-.6-.5-.6zm1.5-.7a2.2 2.2 0 0 0-.9.7h.3a2.3 2.3 0 0 0 1.1-.3 1.6 1.6 0 0 0 .8-.8h-.3a1.4 1.4 0 0 0-1 .4zm3-2.6c-.3 0-.4.2-.4.6h-.2c-.2 0-.4.1-.4.5h-.1c-.3 0-.5.2-.5.6s.2.5.5.5.5-.1.5-.5c.3 0 .5-.2.5-.6h.1a.5.5 0 0 0 .5-.5c0-.4-.2-.6-.5-.6zm22.9-5.8a17.4 17.4 0 0 1-1.2 1.4 1.7 1.7 0 0 0 .8 1l1.1.2a2.4 2.4 0 0 0 1.4-.5 4 4 0 0 0 1-1.2 10 10 0 0 0 .8-1.4c.2-.6.4-1.2.5-1.2h-3.4c-.2 0-.5 1.1-1 1.7z"/><path fill="#231f20" d="M130.3-1.5A125.7 125.7 0 1 0 256 124.2 125.6 125.6 0 0 0 130.3-1.5zM224.6 73a4.2 4.2 0 0 1-1.6.4h-3.6l-5.2 1.2a20.4 20.4 0 0 0-3.6 1.6 8.3 8.3 0 0 0-2.4 2.1 14.1 14.1 0 0 0-1.8 2.9 40.4 40.4 0 0 0-1.5 3.9c-.4 1.5-1 3.1-1.6 5l-1.2 3.4-1.2 3.1a29.6 29.6 0 0 1-1.5 3.1 24.8 24.8 0 0 1-1.7 3.2 41 41 0 0 1-2.6 4.1l-2.9 3.6-3.1 3.5a39.3 39.3 0 0 0-3.1 3.8 11 11 0 0 0-1.4 2.6 19.9 19.9 0 0 1-.9 2.6 9.2 9.2 0 0 1-1.3 2.1 5.7 5.7 0 0 1-2.5 1.6 8.5 8.5 0 0 1-1.3.6l-2 .6-2 .7-1.4.3c.3 1 .4 1.6.2 2a2.2 2.2 0 0 1-.9 1l-1.2.5a1.6 1.6 0 0 0-.8 1l-2.3 6.7a2.1 2.1 0 0 1-1 1.4 5.1 5.1 0 0 1-1.8.9 12.3 12.3 0 0 1-1.9.2l-1.9-.2h-.8c-.5 0-.9.2-1.1.1s-.4-.3-.4-.8 0-.3.1-.4l.2-.3.2-.3c.1-.1.1-.2.1-.4v-.2a21.6 21.6 0 0 0-3.4 1.7l-3.3 2-3.3 2.2-3.3 1.9-.9.5-1.1.5a4.4 4.4 0 0 0-1 .8 1.4 1.4 0 0 0-.5 1c0 .1.1.2.1.4v.2l1.8 1.6a15.4 15.4 0 0 0 1.9 1.7 15.6 15.6 0 0 0 2 1.6 11.3 11.3 0 0 0 2.1 1.2 7.5 7.5 0 0 0 1.8.7l1.9.5 1.9.7a5.1 5.1 0 0 1 1.6.9 5.7 5.7 0 0 1 1.3 1.4l1.1 1.5a7.6 7.6 0 0 1 1.1 1.4 6.4 6.4 0 0 0 1.5 1.3 5.8 5.8 0 0 0 1.7.5l2 .7a5.2 5.2 0 0 1 1.8 1 2.1 2.1 0 0 1 .7 1.7v.5l-5.5 1.1-1.1.4a2.1 2.1 0 0 1-1.2.3h-.6l-1.1-.6-1.8-1-1.6-1a3.8 3.8 0 0 1-1.1-.8l-.2-.2-.3-.5-.3-.5-.3-.4-2.2-4.5-1.1-.4-1.8-.8-2.1-.9-2.1-1a7.5 7.5 0 0 1-1.8-.8l-1.1-.6-2.8-1.5a12.7 12.7 0 0 1-2.5-2.1 10.5 10.5 0 0 1-2-2.7 8.9 8.9 0 0 1-1.1-3.1l-.5.2-.6.4-.9.6-1.7 1.2-2 1.4-2.1 1.3-1.8 1.1-.9.5-5.9 3.5a17.7 17.7 0 0 0-4.5 3.4 15.4 15.4 0 0 0-3.6 4.4c-.9 1.6-.7 3.8-2.4 6.5v.2c0 .1.1.3 0 .4v1a10.4 10.4 0 0 0 1.2 4.4 7.4 7.4 0 0 0 2.1 2.5 8.2 8.2 0 0 0 2.6 1.4 14.5 14.5 0 0 1 2.5 1 6.1 6.1 0 0 1 2 .9 5.3 5.3 0 0 1 .8 2h-13.2l-.2-.4c-.1-.2-.2-.1-.4-.2h-.4l-.7-.4a2.6 2.6 0 0 1-1.2-1.5 10.8 10.8 0 0 1-.5-2.1c0-.8.2-1.5.2-2.3s.3-1.5.3-2v-1.5a8.6 8.6 0 0 1 .3-1.7c.2-.8.3-1.7.6-2.7s.4-2 .7-3.1.6-2.1.8-3.1.5-1.9.7-2.7l.4-1.7c.2-.8.4-1.4.6-2l1-1.9a13.9 13.9 0 0 0 4.5-2.5 25 25 0 0 0 3.2-3.3l2.9-3.4a14.3 14.3 0 0 1 3.4-3l1.4-.7 2-.8 2.3-.9a10.5 10.5 0 0 0 2.1-1.2 5.3 5.3 0 0 0 1.6-1.3 2 2 0 0 0 .6-1.5v-1.3a1.7 1.7 0 0 0-.6-1.2l-.8-.3-1.2-.5-1.1-.6-.8-.3a9.4 9.4 0 0 1-2-1.2l-2.6-1.9-2.6-1.5a2.9 2.9 0 0 0-1.7-.6h-7.8c-5.9 0-11.7-.1-17.4.1s-11.6.2-17.5.2-8.6-.1-12.7-.3a98.4 98.4 0 0 1-12.3-1.4 82.5 82.5 0 0 1-11.9-3 64.5 64.5 0 0 1-11.6-5l-1.4-.7-1.6-1a8 8 0 0 1-1.3-1.3 2.7 2.7 0 0 1-.5-1.5 5.9 5.9 0 0 1 2.1.4l2.4.9a13.6 13.6 0 0 1 2.1 1l1.5.6 4.6 1.6a46.7 46.7 0 0 0 5 1.4 30.6 30.6 0 0 0 5.1 1 27.4 27.4 0 0 0 4.8.4h26.2l2.6-.4 3.3-.5 3.6-.6 3.4-.6 2.6-.6 6.8-1.3 7.3-1.6 7.2-2.1a55.1 55.1 0 0 0 6.5-2.7l3.8-1.8 3.8-1.6 3.9-1.3a27.1 27.1 0 0 1 4.1-.9h2.8l1.7-.2a2.3 2.3 0 0 0 1.1-.2l1.8-.3 3.3-.7 4.1-.9 4-.9c1.2-.3 2.3-.9 3.2-1.1s1.6-.7 1.9-.7h6.5a64.6 64.6 0 0 1 7.8.7c2.6.2 5.1.5 7.8.5a10.1 10.1 0 0 0 5-1.3 15.8 15.8 0 0 0 4.4-3.4 38.1 38.1 0 0 0 3.9-4.9c1.2-1.9 2.2-3.7 3.2-5.6s1.8-3.8 2.5-5.5l1.8-4.8c.4-1.2.8-2.3 1.1-3.4a22.6 22.6 0 0 1 1-3.1 10.3 10.3 0 0 1 1.2-2.6 6.5 6.5 0 0 1 1.7-2 9.5 9.5 0 0 1 2.6-1.6 12.9 12.9 0 0 1 3.8-.7h3c.8 1.6 1.7.9 2.9 1.3s2.4 1 3.6 1.5a11.9 11.9 0 0 1 2.9 1.8 2.7 2.7 0 0 1 1.2 2.1 2 2 0 0 1-.4 1.4 2.1 2.1 0 0 1-1.1.5z"/></symbol></svg>